<svg xmlns="http://www.w3.org/2000/svg" version="1.1" xmlns:xlink="http://www.w3.org/1999/xlink" xmlns:svgjs="http://svgjs.com/svgjs" width="75" height="75" x="0" y="0" viewBox="0 0 512 512" style="enable-background:new 0 0 512 512" xml:space="preserve" class="">
    <g>
        <g><path d="m489.134 244.786c-9.176-12.881-27.319-16.063-40.388-6.514-1.644 1.203 6.028-3.102-128.55 68.711-3.31 1.764-7.116 2.23-10.697 1.379l-75.805-18.024c-9.979-2.373-10.18-16.5-.272-19.155l54.282-14.547c20.384-5.45 32.455-26.323 26.993-46.67-5.397-20.102-26.169-32.435-46.753-26.937l-130.372 34.747c-48.191 12.82-84.81 51.481-95.263 99.708l-36.099 166.565c-1.227 5.661 2.519 11.2 8.229 12.17l92.068 15.637c5.233.889 10.268-2.4 11.558-7.549l29.787-118.93c1.712-6.832 7.85-11.539 14.774-11.539 1.338 0-8.328-.817 149.087 13.783 2.202.204 4.412-.315 6.293-1.478l166.559-103.069c11.225-9.735 13.19-26.194 4.569-38.288z" fill="#fbcdbe" data-original="#fbcdbe" class=""/><path d="m233.216 271.431c-9.616 2.611-9.416 16.321.272 18.651l76.009 18.283c3.587.843 7.387.386 10.7-1.382 134.573-71.819 126.902-67.51 128.548-68.709 13.067-9.551 31.215-6.371 40.39 6.513 8.617 12.092 6.656 28.553-4.573 38.287l-166.56 103.064c-1.88 1.168-4.085 1.687-6.29 1.483-37.21-3.455-65.082-6.046-85.973-7.987v-185.358l42.209-11.248c20.576-5.497 41.356 6.838 46.751 26.937 5.456 20.342-6.615 41.223-26.998 46.67z" fill="#fdbbab" data-original="#fdbbab"/><path d="m407.073 95.912-9.869 28.787c-8.204 23.931 4.519 49.941 28.456 58.148 23.828 8.168 49.944-4.533 58.147-28.457l9.869-28.788-7.248-11.659-67.345-23.088z" fill="#ffd44c" data-original="#ffd44c"/><path d="m289.571.001c-34.537.001-62.636 28.1-62.636 62.636 0 34.537 28.098 62.635 62.635 62.635 34.535.001 62.635-28.097 62.636-62.636 0-34.537-28.098-62.635-62.635-62.635z" fill="#ccf8ff" data-original="#ccf8ff"/><path d="m352.204 62.631c0 34.545-28.093 62.639-62.631 62.631v-125.263c34.531.001 62.631 28.101 62.631 62.632z" fill="#b0f2ff" data-original="#b0f2ff"/><path d="m503.546 96.814c8.185-23.877-4.58-49.961-28.457-58.147-23.932-8.204-49.941 4.523-58.146 28.457l-9.869 28.788 86.603 29.691z" fill="#dd124c" data-original="#dd124c"/></g>
    </g>
</svg>
