<svg xmlns="http://www.w3.org/2000/svg" version="1.1" xmlns:xlink="http://www.w3.org/1999/xlink" xmlns:svgjs="http://svgjs.com/svgjs" width="75" height="75" x="0" y="0" viewBox="0 0 512 512" style="enable-background:new 0 0 512 512" xml:space="preserve" class="">
    <g>
        <g>
            <g>
                <g><path d="m301.124 458.687c.944-.771 1.859-1.595 2.74-2.474 14.367-14.339 14.36-37.594-.015-51.941l-109.046-108.834c-20.756-20.715-48.902-32.358-78.246-32.367l-96.655-.028v102.859l43.847-.168c6.308-.017 12.369 2.453 16.868 6.874l117.509 115.448c15.553 15.3 36.51 23.881 58.342 23.888l199.167.056c14.715.005 26.646-11.922 26.646-26.637 0-14.708-11.921-26.633-26.629-26.637z" fill="#feded0" data-original="#feded0"/><path d="m455.651 458.726-154.527-.04c.944-.771 1.859-1.595 2.74-2.474 14.367-14.339 14.36-37.594-.015-51.941l-29.636-29.578v137.257l181.422.05c14.715.005 26.646-11.922 26.646-26.637-.001-14.708-11.922-26.632-26.63-26.637z" fill="#fecdbf" data-original="#fecdbf"/></g>
                <g><path d="m272.745 464.453c9.915.003 19.826-1.927 29.125-5.766h-.745c.944-.771 1.859-1.595 2.74-2.474 12.938-12.914 14.221-33.055 3.848-47.413l-7.437 7.414c-15.182 15.153-39.896 15.148-55.09-.016l-49.043-48.948c-7.22-7.207-18.924-7.209-26.14-.008-7.217 7.202-7.213 18.882.008 26.089l49.043 48.948c14.805 14.777 34.249 22.168 53.691 22.174z" fill="#fecdbf" data-original="#fecdbf"/><path d="m307.713 408.8-7.437 7.414c-7.216 7.202-16.585 10.98-26.062 11.334v36.87c9.424-.179 18.817-2.081 27.656-5.731h-.745c.944-.771 1.859-1.595 2.74-2.474 12.938-12.914 14.221-33.056 3.848-47.413z" fill="#febeac" data-original="#febeac"/></g><path d="m45.534 394.122h-30.534c-8.284 0-15-6.716-15-15v-126.625c0-8.284 6.716-15 15-15h30.534c8.284 0 15 6.716 15 15v126.625c0 8.285-6.716 15-15 15z" fill="#414c7f" data-original="#414c7f" class=""/></g>
            <g>
                <g><path d="m477.798 86.727c-13.873-5.117-26.798-10.687-30.901-12.482-2.727-2.255-2.632-5.362-2.444-6.666.269-1.869 1.638-6.441 8.54-8.521 10.394-3.129 20.376.901 25.997 4.031 2.213 1.232 4.205 2.803 6.143 4.435 5.652 4.758 14.092 4.726 19.719-.375 6.139-5.563 6.604-15.049 1.041-21.188l-2.999-2.82c-.7-.588-11.678-9.628-27.799-13.494v-14.543c0-8.342-6.762-15.104-15.103-15.104s-15.104 6.762-15.104 15.104v15.081c-.183.053-.364.094-.548.149-16.021 4.826-27.355 17.464-29.583 32.983-2.093 14.579 4.228 28.604 16.494 36.602.663.432 1.358.811 2.081 1.133.66.294 16.381 7.292 34.083 13.822 3.762 1.387 15.92 6.546 14.467 14.683-1.083 6.067-8.552 12.342-19.174 12.342-11.086 0-21.749-4.447-28.546-11.9-5.499-6.029-15.034-6.634-21.136-1.216-6.249 5.548-6.756 15.115-1.157 21.292 8.684 9.581 20.213 16.336 33.019 19.599v15.03c0 8.341 6.762 15.104 15.104 15.104s15.103-6.762 15.103-15.104v-14.198c18.664-4.26 33.156-17.96 36.32-35.675 2.891-16.194-4.421-37.334-33.617-48.104z" fill="#fee570" data-original="#fee570"/><g fill="#fecb6e"><path d="m505.893 45.962-2.999-2.82c-.7-.588-11.676-9.624-27.799-13.486v-14.552c0-8.342-6.762-15.104-15.103-15.104v57.954c7.719-.218 14.659 2.72 18.998 5.136 2.213 1.232 4.205 2.803 6.143 4.435 5.652 4.758 14.092 4.726 19.719-.375 6.139-5.564 6.605-15.05 1.041-21.188z" fill="#fecb6e" data-original="#fecb6e"/><path d="m477.798 86.727c-6.399-2.36-12.583-4.813-17.807-6.951v32.292c2.41.931 4.895 1.873 7.424 2.806 3.762 1.387 15.92 6.546 14.467 14.683-1.083 6.067-8.552 12.342-19.174 12.342-.91 0-1.815-.041-2.717-.1v58.008c8.341 0 15.103-6.762 15.103-15.104v-14.198c18.664-4.26 33.156-17.96 36.32-35.675 2.892-16.193-4.42-37.333-33.616-48.103z" fill="#fecb6e" data-original="#fecb6e"/></g>
                </g>
                <g><path d="m327.471 0c-24.531 0-45.342 17.749-53.089 42.485-7.746-24.736-28.558-42.485-53.088-42.485-31.13 0-56.15 28.534-56.366 63.732-.321 52.423 72.641 112.246 99.601 132.555 5.83 4.392 13.864 4.38 19.681-.031 26.821-20.337 99.305-80.127 99.626-132.524.216-35.198-25.235-63.732-56.365-63.732z" fill="#ffa1d1" data-original="#ffa1d1"/><path d="m327.471 0c-24.53 0-45.342 17.749-53.088 42.485v157.087c3.462-.007 6.921-1.112 9.827-3.316 26.821-20.337 99.305-80.127 99.626-132.524.216-35.198-25.235-63.732-56.365-63.732z" fill="#ff7cb8" data-original="#ff7cb8"/></g>
                <g><path d="m436.32 245.327h-30.483v-30.483c0-8.284-6.716-15-15-15h-35.489c-8.284 0-15 6.716-15 15v30.483h-30.483c-8.284 0-15 6.716-15 15v35.489c0 8.284 6.716 15 15 15h30.483v30.483c0 8.284 6.716 15 15 15h35.489c8.284 0 15-6.716 15-15v-30.483h30.483c8.284 0 15-6.716 15-15v-35.489c0-8.284-6.715-15-15-15z" fill="#3de5aa" data-original="#3de5aa" class=""/><path d="m436.32 245.327h-30.482v-30.483c0-8.284-6.716-15-15-15h-17.745v156.454h17.745c8.284 0 15-6.716 15-15v-30.483h30.482c8.284 0 15-6.716 15-15v-35.489c0-8.283-6.715-14.999-15-14.999z" fill="#30b3b2" data-original="#30b3b2" class=""/></g>
            </g>
        </g>
    </g>
</svg>
